<?xml version="1.0" encoding="UTF-8" standalone="no"?>
<!DOCTYPE svg PUBLIC "-//W3C//DTD SVG 1.1//EN" "http://www.w3.org/Graphics/SVG/1.1/DTD/svg11.dtd">
<svg width="100%" height="100%" viewBox="0 0 1438 1079" version="1.1" xmlns="http://www.w3.org/2000/svg" xmlns:xlink="http://www.w3.org/1999/xlink" xml:space="preserve" xmlns:serif="http://www.serif.com/" style="fill-rule:evenodd;clip-rule:evenodd;stroke-linecap:round;stroke-linejoin:round;stroke-miterlimit:1.5;">
    <g id="Artboard1" transform="matrix(0.751146,0,0,1,-2.16262,-1.65204)">
        <rect x="2.879" y="1.652" width="1913.72" height="1078.12" style="fill:rgb(36,36,36);fill-opacity:0;"/>
        <g id="Layer1" transform="matrix(1.3313,0,0,1,0.216492,0.652035)">
            <g transform="matrix(1,0,0,1,62.1707,-2.78374)">
                <rect x="83.835" y="245.615" width="77.942" height="77.942" style="fill:rgb(235,235,235);stroke:black;stroke-width:1px;"/>
            </g>
            <g transform="matrix(1,0,0,1,155.684,-2.76536)">
                <rect x="83.835" y="245.615" width="77.942" height="77.942" style="fill:rgb(235,235,235);stroke:black;stroke-width:1px;"/>
            </g>
            <g transform="matrix(1,0,0,1,249.198,-2.76536)">
                <rect x="83.835" y="245.615" width="77.942" height="77.942" style="fill:rgb(235,235,235);stroke:black;stroke-width:1px;"/>
            </g>
            <g transform="matrix(1,0,0,1,342.712,-2.76536)">
                <rect x="83.835" y="245.615" width="77.942" height="77.942" style="fill:rgb(235,235,235);stroke:black;stroke-width:1px;"/>
            </g>
            <g transform="matrix(1,0,0,1,436.226,-2.76536)">
                <rect x="83.835" y="245.615" width="77.942" height="77.942" style="fill:rgb(235,235,235);stroke:black;stroke-width:1px;"/>
            </g>
            <g transform="matrix(1,0,0,1,529.739,-2.76536)">
                <rect x="83.835" y="245.615" width="77.942" height="77.942" style="fill:rgb(235,235,235);stroke:black;stroke-width:1px;"/>
            </g>
            <g transform="matrix(1,0,0,1,623.253,-2.76536)">
                <rect x="83.835" y="245.615" width="77.942" height="77.942" style="fill:rgb(235,235,235);stroke:black;stroke-width:1px;"/>
            </g>
            <g transform="matrix(1,0,0,1,716.767,-2.76536)">
                <rect x="83.835" y="245.615" width="77.942" height="77.942" style="fill:rgb(235,235,235);stroke:black;stroke-width:1px;"/>
            </g>
            <g transform="matrix(1,0,0,1,810.281,-2.76536)">
                <rect x="83.835" y="245.615" width="77.942" height="77.942" style="fill:rgb(235,235,235);stroke:black;stroke-width:1px;"/>
            </g>
            <g transform="matrix(1,0,0,1,62.1707,-97.6499)">
                <rect x="83.835" y="245.615" width="77.942" height="77.942" style="fill:rgb(235,235,235);stroke:black;stroke-width:1px;"/>
            </g>
            <g transform="matrix(1,0,0,1,155.684,-97.6316)">
                <rect x="83.835" y="245.615" width="77.942" height="77.942" style="fill:rgb(235,235,235);stroke:black;stroke-width:1px;"/>
            </g>
            <g transform="matrix(1,0,0,1,249.198,-97.6316)">
                <rect x="83.835" y="245.615" width="77.942" height="77.942" style="fill:rgb(235,235,235);stroke:black;stroke-width:1px;"/>
            </g>
            <g transform="matrix(1,0,0,1,342.712,-97.6316)">
                <rect x="83.835" y="245.615" width="77.942" height="77.942" style="fill:rgb(235,235,235);stroke:black;stroke-width:1px;"/>
            </g>
            <g transform="matrix(1,0,0,1,436.226,-97.6316)">
                <rect x="83.835" y="245.615" width="77.942" height="77.942" style="fill:rgb(235,235,235);stroke:black;stroke-width:1px;"/>
            </g>
            <g transform="matrix(1,0,0,1,529.739,-97.6316)">
                <rect x="83.835" y="245.615" width="77.942" height="77.942" style="fill:rgb(235,235,235);stroke:black;stroke-width:1px;"/>
            </g>
            <g transform="matrix(1,0,0,1,623.253,-97.6316)">
                <rect x="83.835" y="245.615" width="77.942" height="77.942" style="fill:rgb(235,235,235);stroke:black;stroke-width:1px;"/>
            </g>
            <g transform="matrix(1,0,0,1,716.767,-97.6316)">
                <rect x="83.835" y="245.615" width="77.942" height="77.942" style="fill:rgb(235,235,235);stroke:black;stroke-width:1px;"/>
            </g>
            <g transform="matrix(1,0,0,1,62.1707,82.5775)">
                <rect x="83.835" y="245.615" width="77.942" height="77.942" style="fill:rgb(235,235,235);stroke:black;stroke-width:1px;"/>
            </g>
            <g transform="matrix(1,0,0,1,155.684,82.5958)">
                <rect x="83.835" y="245.615" width="77.942" height="77.942" style="fill:rgb(235,235,235);stroke:black;stroke-width:1px;"/>
            </g>
            <g transform="matrix(1,0,0,1,249.198,82.5958)">
                <rect x="83.835" y="245.615" width="77.942" height="77.942" style="fill:rgb(235,235,235);stroke:black;stroke-width:1px;"/>
            </g>
            <g transform="matrix(1,0,0,1,342.712,82.5958)">
                <rect x="83.835" y="245.615" width="77.942" height="77.942" style="fill:rgb(235,235,235);stroke:black;stroke-width:1px;"/>
            </g>
            <g transform="matrix(1,0,0,1,436.226,82.5958)">
                <rect x="83.835" y="245.615" width="77.942" height="77.942" style="fill:rgb(235,235,235);stroke:black;stroke-width:1px;"/>
            </g>
            <g transform="matrix(1,0,0,1,529.739,82.5958)">
                <rect x="83.835" y="245.615" width="77.942" height="77.942" style="fill:rgb(235,235,235);stroke:black;stroke-width:1px;"/>
            </g>
            <g transform="matrix(1,0,0,1,623.253,82.5958)">
                <rect x="83.835" y="245.615" width="77.942" height="77.942" style="fill:rgb(235,235,235);stroke:black;stroke-width:1px;"/>
            </g>
            <g transform="matrix(1,0,0,1,716.767,82.5958)">
                <rect x="83.835" y="245.615" width="77.942" height="77.942" style="fill:rgb(235,235,235);stroke:black;stroke-width:1px;"/>
            </g>
            <g transform="matrix(1,0,0,1,810.281,82.5958)">
                <rect x="83.835" y="245.615" width="77.942" height="77.942" style="fill:rgb(235,235,235);stroke:black;stroke-width:1px;"/>
            </g>
            <g transform="matrix(1,0,0,1,62.1707,168.165)">
                <rect x="83.835" y="245.615" width="77.942" height="77.942" style="fill:rgb(235,235,235);stroke:black;stroke-width:1px;"/>
            </g>
            <g transform="matrix(1,0,0,1,155.684,168.184)">
                <rect x="83.835" y="245.615" width="77.942" height="77.942" style="fill:rgb(235,235,235);stroke:black;stroke-width:1px;"/>
            </g>
            <g transform="matrix(1,0,0,1,249.198,168.184)">
                <rect x="83.835" y="245.615" width="77.942" height="77.942" style="fill:rgb(235,235,235);stroke:black;stroke-width:1px;"/>
            </g>
            <g transform="matrix(1,0,0,1,342.712,168.184)">
                <rect x="83.835" y="245.615" width="77.942" height="77.942" style="fill:rgb(235,235,235);stroke:black;stroke-width:1px;"/>
            </g>
            <g transform="matrix(1,0,0,1,436.226,168.184)">
                <rect x="83.835" y="245.615" width="77.942" height="77.942" style="fill:rgb(235,235,235);stroke:black;stroke-width:1px;"/>
            </g>
            <g transform="matrix(1,0,0,1,529.739,168.184)">
                <rect x="83.835" y="245.615" width="77.942" height="77.942" style="fill:rgb(235,235,235);stroke:black;stroke-width:1px;"/>
            </g>
            <g transform="matrix(1,0,0,1,623.253,168.184)">
                <rect x="83.835" y="245.615" width="77.942" height="77.942" style="fill:rgb(235,235,235);stroke:black;stroke-width:1px;"/>
            </g>
            <g transform="matrix(1,0,0,1,716.767,168.184)">
                <rect x="83.835" y="245.615" width="77.942" height="77.942" style="fill:rgb(235,235,235);stroke:black;stroke-width:1px;"/>
            </g>
            <g transform="matrix(1,0,0,1,810.281,168.184)">
                <rect x="83.835" y="245.615" width="77.942" height="77.942" style="fill:rgb(235,235,235);stroke:black;stroke-width:1px;"/>
            </g>
            <g transform="matrix(1,0,0,1,62.1707,253.526)">
                <rect x="83.835" y="245.615" width="77.942" height="77.942" style="fill:rgb(235,235,235);stroke:black;stroke-width:1px;"/>
            </g>
            <g transform="matrix(1,0,0,1,155.684,253.545)">
                <rect x="83.835" y="245.615" width="77.942" height="77.942" style="fill:rgb(235,235,235);stroke:black;stroke-width:1px;"/>
            </g>
            <g transform="matrix(1,0,0,1,249.198,253.545)">
                <rect x="83.835" y="245.615" width="77.942" height="77.942" style="fill:rgb(235,235,235);stroke:black;stroke-width:1px;"/>
            </g>
            <g transform="matrix(1,0,0,1,342.712,253.545)">
                <rect x="83.835" y="245.615" width="77.942" height="77.942" style="fill:rgb(235,235,235);stroke:black;stroke-width:1px;"/>
            </g>
            <g transform="matrix(1,0,0,1,436.226,253.545)">
                <rect x="83.835" y="245.615" width="77.942" height="77.942" style="fill:rgb(235,235,235);stroke:black;stroke-width:1px;"/>
            </g>
            <g transform="matrix(1,0,0,1,529.739,253.545)">
                <rect x="83.835" y="245.615" width="77.942" height="77.942" style="fill:rgb(235,235,235);stroke:black;stroke-width:1px;"/>
            </g>
            <g transform="matrix(1,0,0,1,623.253,253.545)">
                <rect x="83.835" y="245.615" width="77.942" height="77.942" style="fill:rgb(235,235,235);stroke:black;stroke-width:1px;"/>
            </g>
            <g transform="matrix(1,0,0,1,716.767,253.545)">
                <rect x="83.835" y="245.615" width="77.942" height="77.942" style="fill:rgb(235,235,235);stroke:black;stroke-width:1px;"/>
            </g>
            <g transform="matrix(1,0,0,1,810.281,253.545)">
                <rect x="83.835" y="245.615" width="77.942" height="77.942" style="fill:rgb(235,235,235);stroke:black;stroke-width:1px;"/>
            </g>
            <g transform="matrix(1,0,0,1,62.1707,387.423)">
                <rect x="83.835" y="245.615" width="77.942" height="77.942" style="fill:rgb(235,235,235);stroke:black;stroke-width:1px;"/>
            </g>
            <g transform="matrix(1,0,0,1,155.684,387.442)">
                <rect x="83.835" y="245.615" width="77.942" height="77.942" style="fill:rgb(235,235,235);stroke:black;stroke-width:1px;"/>
            </g>
            <g transform="matrix(1,0,0,1,249.198,387.442)">
                <rect x="83.835" y="245.615" width="77.942" height="77.942" style="fill:rgb(235,235,235);stroke:black;stroke-width:1px;"/>
            </g>
            <g transform="matrix(1,0,0,1,342.712,387.442)">
                <rect x="83.835" y="245.615" width="77.942" height="77.942" style="fill:rgb(235,235,235);stroke:black;stroke-width:1px;"/>
            </g>
            <g transform="matrix(1,0,0,1,436.226,387.442)">
                <rect x="83.835" y="245.615" width="77.942" height="77.942" style="fill:rgb(235,235,235);stroke:black;stroke-width:1px;"/>
            </g>
            <g transform="matrix(1,0,0,1,529.739,387.442)">
                <rect x="83.835" y="245.615" width="77.942" height="77.942" style="fill:rgb(235,235,235);stroke:black;stroke-width:1px;"/>
            </g>
            <g transform="matrix(1,0,0,1,623.253,387.442)">
                <rect x="83.835" y="245.615" width="77.942" height="77.942" style="fill:rgb(235,235,235);stroke:black;stroke-width:1px;"/>
            </g>
            <g transform="matrix(1,0,0,1,716.767,387.442)">
                <rect x="83.835" y="245.615" width="77.942" height="77.942" style="fill:rgb(235,235,235);stroke:black;stroke-width:1px;"/>
            </g>
            <g transform="matrix(1,0,0,1,810.281,387.442)">
                <rect x="83.835" y="245.615" width="77.942" height="77.942" style="fill:rgb(235,235,235);stroke:black;stroke-width:1px;"/>
            </g>
            <g transform="matrix(1,0,0,1,62.1707,472.784)">
                <rect x="83.835" y="245.615" width="77.942" height="77.942" style="fill:rgb(235,235,235);stroke:black;stroke-width:1px;"/>
            </g>
            <g transform="matrix(1,0,0,1,155.684,472.803)">
                <rect x="83.835" y="245.615" width="77.942" height="77.942" style="fill:rgb(235,235,235);stroke:black;stroke-width:1px;"/>
            </g>
            <g transform="matrix(1,0,0,1,249.198,472.803)">
                <rect x="83.835" y="245.615" width="77.942" height="77.942" style="fill:rgb(235,235,235);stroke:black;stroke-width:1px;"/>
            </g>
            <g transform="matrix(1,0,0,1,342.712,472.803)">
                <rect x="83.835" y="245.615" width="77.942" height="77.942" style="fill:rgb(235,235,235);stroke:black;stroke-width:1px;"/>
            </g>
            <g transform="matrix(1,0,0,1,436.226,472.803)">
                <rect x="83.835" y="245.615" width="77.942" height="77.942" style="fill:rgb(235,235,235);stroke:black;stroke-width:1px;"/>
            </g>
            <g transform="matrix(1,0,0,1,529.739,472.803)">
                <rect x="83.835" y="245.615" width="77.942" height="77.942" style="fill:rgb(235,235,235);stroke:black;stroke-width:1px;"/>
            </g>
            <g transform="matrix(1,0,0,1,623.253,472.803)">
                <rect x="83.835" y="245.615" width="77.942" height="77.942" style="fill:rgb(235,235,235);stroke:black;stroke-width:1px;"/>
            </g>
            <g transform="matrix(1,0,0,1,716.767,472.803)">
                <rect x="83.835" y="245.615" width="77.942" height="77.942" style="fill:rgb(235,235,235);stroke:black;stroke-width:1px;"/>
            </g>
            <g transform="matrix(1,0,0,1,810.281,472.803)">
                <rect x="83.835" y="245.615" width="77.942" height="77.942" style="fill:rgb(235,235,235);stroke:black;stroke-width:1px;"/>
            </g>
            <g transform="matrix(1,0,0,1,62.1707,558.372)">
                <rect x="83.835" y="245.615" width="77.942" height="77.942" style="fill:rgb(235,235,235);stroke:black;stroke-width:1px;"/>
            </g>
            <g transform="matrix(1,0,0,1,155.684,558.391)">
                <rect x="83.835" y="245.615" width="77.942" height="77.942" style="fill:rgb(235,235,235);stroke:black;stroke-width:1px;"/>
            </g>
            <g transform="matrix(1,0,0,1,249.198,558.391)">
                <rect x="83.835" y="245.615" width="77.942" height="77.942" style="fill:rgb(235,235,235);stroke:black;stroke-width:1px;"/>
            </g>
            <g transform="matrix(1,0,0,1,342.712,558.391)">
                <rect x="83.835" y="245.615" width="77.942" height="77.942" style="fill:rgb(235,235,235);stroke:black;stroke-width:1px;"/>
            </g>
            <g transform="matrix(1,0,0,1,436.226,558.391)">
                <rect x="83.835" y="245.615" width="77.942" height="77.942" style="fill:rgb(235,235,235);stroke:black;stroke-width:1px;"/>
            </g>
            <g transform="matrix(1,0,0,1,529.739,558.391)">
                <rect x="83.835" y="245.615" width="77.942" height="77.942" style="fill:rgb(235,235,235);stroke:black;stroke-width:1px;"/>
            </g>
            <g transform="matrix(1,0,0,1,623.253,558.391)">
                <rect x="83.835" y="245.615" width="77.942" height="77.942" style="fill:rgb(235,235,235);stroke:black;stroke-width:1px;"/>
            </g>
            <g transform="matrix(1,0,0,1,716.767,558.391)">
                <rect x="83.835" y="245.615" width="77.942" height="77.942" style="fill:rgb(235,235,235);stroke:black;stroke-width:1px;"/>
            </g>
            <g transform="matrix(1,0,0,1,810.281,558.391)">
                <rect x="83.835" y="245.615" width="77.942" height="77.942" style="fill:rgb(235,235,235);stroke:black;stroke-width:1px;"/>
            </g>
            <g transform="matrix(1,0,0,1,62.1707,643.733)">
                <rect x="83.835" y="245.615" width="77.942" height="77.942" style="fill:rgb(235,235,235);stroke:black;stroke-width:1px;"/>
            </g>
            <g transform="matrix(1,0,0,1,155.684,643.752)">
                <rect x="83.835" y="245.615" width="77.942" height="77.942" style="fill:rgb(235,235,235);stroke:black;stroke-width:1px;"/>
            </g>
            <g transform="matrix(1,0,0,1,249.198,643.752)">
                <rect x="83.835" y="245.615" width="77.942" height="77.942" style="fill:rgb(235,235,235);stroke:black;stroke-width:1px;"/>
            </g>
            <g transform="matrix(1,0,0,1,342.712,643.752)">
                <rect x="83.835" y="245.615" width="77.942" height="77.942" style="fill:rgb(235,235,235);stroke:black;stroke-width:1px;"/>
            </g>
            <g transform="matrix(1,0,0,1,436.226,643.752)">
                <rect x="83.835" y="245.615" width="77.942" height="77.942" style="fill:rgb(235,235,235);stroke:black;stroke-width:1px;"/>
            </g>
            <g transform="matrix(1,0,0,1,529.739,643.752)">
                <rect x="83.835" y="245.615" width="77.942" height="77.942" style="fill:rgb(235,235,235);stroke:black;stroke-width:1px;"/>
            </g>
            <g transform="matrix(1,0,0,1,623.253,643.752)">
                <rect x="83.835" y="245.615" width="77.942" height="77.942" style="fill:rgb(235,235,235);stroke:black;stroke-width:1px;"/>
            </g>
            <g transform="matrix(1,0,0,1,716.767,643.752)">
                <rect x="83.835" y="245.615" width="77.942" height="77.942" style="fill:rgb(235,235,235);stroke:black;stroke-width:1px;"/>
            </g>
            <g transform="matrix(1,0,0,1,810.281,643.752)">
                <rect x="83.835" y="245.615" width="77.942" height="77.942" style="fill:rgb(235,235,235);stroke:black;stroke-width:1px;"/>
            </g>
            <g transform="matrix(1,0,0,1,-34.9202,17.8611)">
                <g transform="matrix(20,0,0,20,1137,265.744)">
                </g>
                <text x="1027.54px" y="265.744px" style="font-family:'Arial-Black', 'Arial Black', sans-serif;font-weight:900;font-size:20px;fill:white;">Fill Activ<tspan x="1123.66px " y="265.744px ">e</tspan></text>
            </g>
            <g transform="matrix(2.31846,0,0,2.31846,-1402.27,-483.61)">
                <g transform="matrix(11.9749,0,0,11.9749,1154.21,265.744)">
                </g>
                <text x="1027.54px" y="265.744px" style="font-family:'Arial-Black', 'Arial Black', sans-serif;font-weight:900;font-size:11.975px;fill:white;">Launc<tspan x="1067.27px 1075.25px 1083.7px 1091.68px " y="265.744px 265.744px 265.744px 265.744px ">hPad</tspan>MiniMk3</text>
            </g>
            <g transform="matrix(4.76335,0,0,4.76335,-3917.74,-1086.11)">
                <g transform="matrix(11.9749,0,0,11.9749,1110.69,265.744)">
                </g>
                <text x="1027.54px" y="265.744px" style="font-family:'Arial-Black', 'Arial Black', sans-serif;font-weight:900;font-size:11.975px;fill:white;">PERFORMER</text>
            </g>
            <g transform="matrix(1,0,0,1,-33.6692,111.309)">
                <g transform="matrix(20,0,0,20,1137,265.744)">
                </g>
                <text x="1027.54px" y="265.744px" style="font-family:'Arial-Black', 'Arial Black', sans-serif;font-weight:900;font-size:20px;fill:white;">Fill Activ<tspan x="1123.66px " y="265.744px ">e</tspan></text>
            </g>
            <g transform="matrix(1,0,0,1,-33.6692,201.147)">
                <text x="1027.54px" y="265.744px" style="font-family:'Arial-Black', 'Arial Black', sans-serif;font-weight:900;font-size:20px;fill:white;">Launc<tspan x="1093.89px 1107.23px " y="265.744px 265.744px ">h/</tspan>Al<tspan x="1135.41px " y="265.744px ">t</tspan> Launc<tspan x="1217.31px 1230.65px " y="265.744px 265.744px ">h </tspan>Mode (T<tspan x="1323.76px 1337.1px 1350.63px 1364.17px 1370.83px " y="265.744px 265.744px 265.744px 265.744px 265.744px ">oggle</tspan>)</text>
            </g>
            <g transform="matrix(1,0,0,1,-33.6692,279.08)">
                <g transform="matrix(20,0,0,20,1327.31,265.744)">
                </g>
                <text x="1027.54px" y="265.744px" style="font-family:'Arial-Black', 'Arial Black', sans-serif;font-weight:900;font-size:20px;fill:white;">Scene Launc<tspan x="1168.37px 1181.71px " y="265.744px 265.744px ">h </tspan>(Momentar<tspan x="1307.31px 1319.53px " y="265.744px 265.744px ">y)</tspan></text>
            </g>
            <g transform="matrix(1,0,0,1,-33.6692,412.229)">
                <g transform="matrix(20,0,0,20,1126.42,265.744)">
                </g>
                <text x="1027.54px" y="265.744px" style="font-family:'Arial-Black', 'Arial Black', sans-serif;font-weight:900;font-size:20px;fill:white;">Stop Clip</text>
            </g>
            <g transform="matrix(1,0,0,1,-33.6692,503.702)">
                <g transform="matrix(20,0,0,20,1155.32,265.744)">
                </g>
                <text x="1027.54px" y="265.744px" style="font-family:'Arial-Black', 'Arial Black', sans-serif;font-weight:900;font-size:20px;fill:white;">R<tspan x="1042.6px 1055.93px " y="265.744px 265.744px ">ec</tspan>or<tspan x="1091.99px 1105.33px " y="265.744px 265.744px ">d </tspan>Slot</text>
            </g>
            <g transform="matrix(1,0,0,1,-33.6692,681.002)">
                <g transform="matrix(20,0,0,20,1165.32,265.744)">
                </g>
                <text x="1027.54px" y="265.744px" style="font-family:'Arial-Black', 'Arial Black', sans-serif;font-weight:900;font-size:20px;fill:white;">Option Menu</text>
            </g>
            <g transform="matrix(1,0,0,1,-890.037,-142.913)">
                <g transform="matrix(16,0,0,16,1101.33,265.744)">
                </g>
                <text x="1027.54px" y="265.744px" style="font-family:'Arial-Black', 'Arial Black', sans-serif;font-weight:900;font-size:16px;fill:white;">Bank Up</text>
            </g>
            <g transform="matrix(1,0,0,1,-796.047,-142.913)">
                <g transform="matrix(16,0,0,16,1125.93,265.744)">
                </g>
                <text x="1027.54px" y="265.744px" style="font-family:'Arial-Black', 'Arial Black', sans-serif;font-weight:900;font-size:16px;fill:white;">Bank Do<tspan x="1100.16px 1115.26px " y="265.744px 265.744px ">wn</tspan></text>
            </g>
            <g transform="matrix(1,0,0,1,-410.017,-143.465)">
                <g transform="matrix(16,0,0,16,1105.63,265.744)">
                </g>
                <text x="1023.24px" y="265.744px" style="font-family:'Arial-Black', 'Arial Black', sans-serif;font-weight:900;font-size:16px;fill:white;">Cop<tspan x="1056.75px 1066.52px " y="265.744px 265.744px ">y </tspan>Clip</text>
            </g>
            <g transform="matrix(1,0,0,1,-231.051,-141.799)">
                <g transform="matrix(16,0,0,16,1121.04,265.744)">
                </g>
                <text x="1032.43px" y="265.744px" style="font-family:'Arial-Black', 'Arial Black', sans-serif;font-weight:900;font-size:16px;fill:white;">P<tspan x="1043.71px 1054.38px " y="265.744px 265.744px ">as</tspan>te Clip</text>
            </g>
        </g>
    </g>
</svg>
